<?xml version="1.0" encoding="utf-8"?>
<!-- Generator: Adobe Illustrator 23.0.4, SVG Export Plug-In . SVG Version: 6.00 Build 0)  -->
<svg version="1.1" id="Laag_1" xmlns="http://www.w3.org/2000/svg" xmlns:xlink="http://www.w3.org/1999/xlink" x="0px" y="0px"
	 viewBox="0 0 149.55 170.08" style="enable-background:new 0 0 149.55 170.08;" xml:space="preserve">
<style type="text/css">
	.st0{fill:#FFFFFF;stroke:#E52421;stroke-width:13;}
	.st1{fill:#E52421;stroke:#E52421;stroke-miterlimit:10;}
	.st2{fill:#FFFFFF;stroke:#E52421;stroke-miterlimit:10;}
</style>
<g>
	<circle class="st0" cx="111.55" cy="86.49" r="30.16"/>
	<path class="st1" d="M62.32,163.98c-13.8,0-26.75-2.24-36.47-6.29c-9.19-3.84-14.45-8.99-14.45-14.14V35.64h101.85v107.91
		c0,5.15-5.27,10.3-14.46,14.14C89.07,161.75,76.11,163.98,62.32,163.98z"/>
	<ellipse class="st2" cx="61.91" cy="34.2" rx="45.52" ry="21.11"/>
	<path class="st1" d="M62.32,60.24c-29.03,0-50.92-11.19-50.92-26.04S33.29,8.17,62.32,8.17c29.03,0,50.92,11.19,50.92,26.04
		S91.35,60.24,62.32,60.24z M62.32,17.53c-11.68,0-22.58,2.07-30.71,5.82c-6.77,3.13-10.82,7.19-10.82,10.85
		c0,3.67,4.04,7.72,10.82,10.85c8.12,3.75,19.03,5.82,30.71,5.82c11.68,0,22.58-2.07,30.71-5.82c6.77-3.13,10.82-7.19,10.82-10.85
		s-4.04-7.72-10.82-10.85C84.9,19.6,74,17.53,62.32,17.53z"/>
</g>
</svg>
