<?xml version="1.0" encoding="utf-8"?>
<!-- Generator: Adobe Illustrator 23.0.4, SVG Export Plug-In . SVG Version: 6.00 Build 0)  -->
<svg version="1.1" id="Laag_1" xmlns="http://www.w3.org/2000/svg" xmlns:xlink="http://www.w3.org/1999/xlink" x="0px" y="0px"
	 viewBox="0 0 415.5 170.08" style="enable-background:new 0 0 415.5 170.08;" xml:space="preserve">
<style type="text/css">
	.st0{fill:#E52421;}
	.st1{fill:#CDCCCC;stroke:#FFFFFF;stroke-width:2;}
	.st2{fill:#CDCCCC;stroke:#FFFFFF;}
</style>
<path class="st0" d="M68.82,63.89h17.59c38.5,0,69.72,31.21,69.72,69.72l0,0l0,0c0,0.99-0.8,1.79-1.79,1.79H0.89
	c-0.99,0-1.79-0.8-1.79-1.79l0,0C-0.9,95.1,30.32,63.89,68.82,63.89C68.82,63.89,68.82,63.89,68.82,63.89z"/>
<circle class="st1" cx="77.61" cy="38.32" r="37.24"/>
<path class="st0" d="M328.02,63.89h17.59c38.5,0,69.72,31.21,69.72,69.72l0,0l0,0c0,0.99-0.8,1.79-1.79,1.79H260.09
	c-0.99,0-1.79-0.8-1.79-1.79l0,0C258.3,95.1,289.51,63.89,328.02,63.89C328.02,63.89,328.02,63.89,328.02,63.89z"/>
<circle class="st1" cx="336.81" cy="38.32" r="37.24"/>
<path class="st2" d="M200.02,84.71h17.59c38.5,0,69.72,31.21,69.72,69.72l0,0l0,0c0,0.99-0.8,1.79-1.79,1.79H132.09
	c-0.99,0-1.79-0.8-1.79-1.79l0,0C130.3,115.93,161.51,84.71,200.02,84.71C200.02,84.71,200.02,84.71,200.02,84.71z"/>
<circle class="st1" cx="208.81" cy="59.15" r="37.24"/>
</svg>
