<?xml version="1.0" encoding="utf-8"?>
<!-- Generator: Adobe Illustrator 23.0.4, SVG Export Plug-In . SVG Version: 6.00 Build 0)  -->
<svg version="1.1" id="Laag_1" xmlns="http://www.w3.org/2000/svg" xmlns:xlink="http://www.w3.org/1999/xlink" x="0px" y="0px"
	 viewBox="0 0 164.7 150.1" style="enable-background:new 0 0 164.7 150.1;" xml:space="preserve">
<style type="text/css">
	.st0{fill:#CDCCCC;}
	.st1{fill:#E52421;}
</style>
<path class="st0" d="M106.31,80.74c-6.32,5.77-14.72,9.29-23.95,9.29S64.71,86.5,58.4,80.74c-29.24,7.01-50.97,33.3-50.97,64.69
	c0,0.94,0.76,1.71,1.71,1.71h146.44c0.94,0,1.71-0.76,1.71-1.71C157.28,114.04,135.54,87.75,106.31,80.74z"/>
<circle class="st0" cx="82.35" cy="52.32" r="35.54"/>
<path id="Union_17" class="st1" d="M93.91,18.16l-25.3-0.43l0.2-11.99c0.06-3.31,6.82-5.88,15.09-5.74s14.94,2.93,14.88,6.25
	l-0.1,6.1c9.93,0.17,17.96,1.65,17.93,3.3c-0.03,1.65-8.11,2.86-18.03,2.69C96.97,18.32,95.41,18.25,93.91,18.16z"/>
</svg>
