<?xml version="1.0" encoding="utf-8"?>
<!-- Generator: Adobe Illustrator 23.0.4, SVG Export Plug-In . SVG Version: 6.00 Build 0)  -->
<svg version="1.1" id="Laag_1" xmlns="http://www.w3.org/2000/svg" xmlns:xlink="http://www.w3.org/1999/xlink" x="0px" y="0px"
	 viewBox="0 0 164.7 206.92" style="enable-background:new 0 0 164.7 206.92;" xml:space="preserve">
<style type="text/css">
	.st0{fill:#CDCCCC;}
	.st1{fill:#E52421;}
	.st2{fill:none;stroke:#FFFFFF;stroke-width:3;}
</style>
<path id="Rectangle_52" class="st0" d="M29.33,4.04h106.05c10.98,0,19.88,8.9,19.88,19.88V183c0,10.98-8.9,19.88-19.88,19.88H29.33
	c-10.98,0-19.88-8.9-19.88-19.88V23.92C9.44,12.94,18.34,4.04,29.33,4.04z"/>
<path id="Rectangle_53" class="st1" d="M49.21,43.81h66.28c7.32,0,13.26,5.93,13.26,13.26v66.28c0,7.32-5.93,13.26-13.26,13.26
	H49.21c-7.32,0-13.26-5.93-13.26-13.26V57.06C35.95,49.74,41.89,43.81,49.21,43.81z"/>
<path id="Rectangle_54" class="st1" d="M49.21,149.86h66.28c7.32,0,13.26,5.93,13.26,13.26v39.77l0,0H35.95l0,0v-39.77
	C35.95,155.79,41.89,149.86,49.21,149.86z"/>
<line id="Line_90" class="st2" x1="45.9" y1="60.38" x2="98.92" y2="60.38"/>
<line id="Line_94" class="st2" x1="45.9" y1="166.43" x2="98.92" y2="166.43"/>
<line id="Line_91" class="st2" x1="45.9" y1="86.89" x2="79.04" y2="86.89"/>
<line id="Line_93" class="st2" x1="45.9" y1="192.94" x2="79.04" y2="192.94"/>
<line id="Line_92" class="st2" x1="45.9" y1="113.4" x2="118.81" y2="113.4"/>
</svg>
