<?xml version="1.0" encoding="utf-8"?>
<!-- Generator: Adobe Illustrator 23.0.4, SVG Export Plug-In . SVG Version: 6.00 Build 0)  -->
<svg version="1.1" id="Laag_1" xmlns="http://www.w3.org/2000/svg" xmlns:xlink="http://www.w3.org/1999/xlink" x="0px" y="0px"
	 viewBox="0 0 164.7 150.1" style="enable-background:new 0 0 164.7 150.1;" xml:space="preserve">
<style type="text/css">
	.st0{fill:#CDCCCC;}
	.st1{fill:#E52421;}
</style>
<g>
	<path class="st0" d="M92.55,6.61c-33.29,0-61.02,23.78-67.16,55.28H63.6v-20.1c0-0.31,0.25-0.53,0.52-0.53
		c0.09,0,0.19,0.03,0.28,0.08l56.41,35.9c0.32,0.2,0.32,0.68,0,0.89L64.4,114.02c-0.09,0.06-0.19,0.09-0.28,0.09
		c-0.27,0-0.52-0.22-0.52-0.53v-20.1H26.64c8.05,28.84,34.5,50.01,65.91,50.01c37.8,0,68.44-30.64,68.44-68.44
		S130.35,6.61,92.55,6.61z"/>
	<path class="st1" d="M66.89,107.13V93.27v-3.95h-3.95H3.71V65.62h59.23h3.95v-3.95V47.81l46.61,29.66L66.89,107.13z"/>
</g>
</svg>
