<?xml version="1.0" encoding="utf-8"?>
<!-- Generator: Adobe Illustrator 23.0.4, SVG Export Plug-In . SVG Version: 6.00 Build 0)  -->
<svg version="1.1" id="Laag_1" xmlns="http://www.w3.org/2000/svg" xmlns:xlink="http://www.w3.org/1999/xlink" x="0px" y="0px"
	 viewBox="0 0 595.3 227.2" style="enable-background:new 0 0 595.3 227.2;" xml:space="preserve">
<style type="text/css">
	.st0{fill:#DA5729;}
</style>
<g>
	<path class="st0" d="M208.9,86c0-5.6,1-10.6,3-15.1c2-4.5,4.8-8.4,8.3-11.6c3.5-3.2,7.6-5.7,12.4-7.4c4.8-1.7,9.8-2.6,15.2-2.6
		c5.4,0,10.5,0.9,15.2,2.6c4.8,1.7,8.9,4.2,12.4,7.4c3.5,3.2,6.3,7.1,8.3,11.6c2,4.5,3,9.6,3,15.1c0,5.6-1,10.6-3,15.1
		c-2,4.5-4.8,8.4-8.3,11.6c-3.5,3.2-7.6,5.7-12.4,7.4c-4.8,1.7-9.8,2.6-15.2,2.6c-5.4,0-10.5-0.9-15.2-2.6
		c-4.8-1.7-8.9-4.2-12.4-7.4c-3.5-3.2-6.3-7.1-8.3-11.6C209.9,96.6,208.9,91.6,208.9,86z M230.6,86c0,5.3,1.5,9.6,4.5,12.8
		c3,3.3,7.3,4.9,12.8,4.9c5.5,0,9.7-1.6,12.8-4.9c3-3.3,4.5-7.5,4.5-12.8c0-5.3-1.5-9.6-4.5-12.8c-3-3.3-7.3-4.9-12.8-4.9
		c-5.5,0-9.7,1.6-12.8,4.9C232.1,76.4,230.6,80.7,230.6,86z"/>
	<path d="M301.5,12h21.6v46.4h0.3c2.5-3.4,5.7-5.7,9.6-7.1c3.9-1.4,8.1-2.1,12.6-2.1c5,0,9.5,1,13.4,3.1c3.9,2.1,7.3,4.8,10,8.3
		c2.7,3.5,4.9,7.4,6.3,11.9c1.5,4.5,2.2,9.2,2.2,14.1c0,5.3-0.8,10.1-2.5,14.6c-1.6,4.4-4,8.2-7,11.5c-3,3.2-6.7,5.7-10.9,7.5
		c-4.2,1.8-8.9,2.7-14.1,2.7c-2.5,0-4.9-0.3-7.1-1c-2.2-0.7-4.3-1.5-6.1-2.6s-3.5-2.2-4.9-3.5c-1.4-1.3-2.5-2.6-3.4-3.8h-0.3v9.2
		h-19.9V12z M321.4,86c0,5.3,1.5,9.6,4.5,12.8c3,3.3,7.3,4.9,12.8,4.9c5.5,0,9.7-1.6,12.8-4.9c3-3.3,4.5-7.5,4.5-12.8
		c0-5.3-1.5-9.6-4.5-12.8c-3-3.3-7.3-4.9-12.8-4.9c-5.5,0-9.7,1.6-12.8,4.9C322.9,76.4,321.4,80.7,321.4,86z"/>
	<path class="st0" d="M446.7,72.2v0.3c3.7,2.4,6.4,5.6,8.1,9.6c1.6,4,2.5,8.2,2.5,12.6c0,3.3-0.5,6.4-1.4,9.4c-0.9,3-2.3,5.7-4.1,8
		c-1.8,2.3-4.1,4.1-6.8,5.5c-2.7,1.3-5.8,2-9.4,2c-4,0-7.4-0.7-10.2-2.2c-2.8-1.5-5.1-3.5-6.9-6.1c-1.8-2.5-3.2-5.5-4.3-8.7
		c-1-3.3-1.8-6.7-2.2-10.2s-0.8-7-0.9-10.5c-0.1-3.5-0.1-6.8-0.1-9.7c-3.8,0-6.9,1.4-9.2,4.1c-2.3,2.7-3.4,6-3.4,9.7
		c0,3.6,0.7,6.8,2.2,9.7c1.5,2.9,3.5,5.6,6.1,7.9L395,115.2c-3.7-4-6.6-8.7-8.4-14.1c-1.9-5.4-2.8-11-2.8-16.7
		c0-6.3,0.8-11.6,2.4-15.6c1.6-4.1,3.9-7.4,7-9.8c3.1-2.5,6.8-4.2,11.3-5.1c4.5-1,9.6-1.4,15.5-1.4h35.6v19.9H446.7z M424.8,77.6
		c0,1.6,0.1,3.7,0.2,6.1c0.1,2.5,0.6,4.8,1.2,7.1c0.7,2.3,1.7,4.2,3,5.8c1.3,1.6,3.2,2.4,5.6,2.4c2.6,0,4.5-1.1,5.8-3.3
		c1.3-2.2,1.9-4.5,1.9-6.9c0-2.1-0.3-4.2-0.9-6.1c-0.6-2-1.4-3.7-2.5-5.3c-1.1-1.5-2.4-2.8-4-3.7c-1.6-0.9-3.6-1.4-5.8-1.4h-4.6
		V77.6z"/>
	<path d="M9.7,178.4c0-5.6,1-10.6,3-15.1c2-4.5,4.8-8.4,8.3-11.6c3.5-3.2,7.6-5.7,12.4-7.4c4.8-1.7,9.8-2.6,15.2-2.6
		c5.4,0,10.5,0.9,15.2,2.6c4.8,1.7,8.9,4.2,12.4,7.4c3.5,3.2,6.3,7.1,8.3,11.6c2,4.5,3,9.6,3,15.1c0,5.6-1,10.6-3,15.1
		c-2,4.5-4.8,8.4-8.3,11.6c-3.5,3.2-7.6,5.7-12.4,7.4c-4.8,1.7-9.8,2.6-15.2,2.6c-5.4,0-10.5-0.9-15.2-2.6
		c-4.8-1.7-8.9-4.2-12.4-7.4c-3.5-3.2-6.3-7.1-8.3-11.6C10.7,189,9.7,184,9.7,178.4z M31.3,178.4c0,5.3,1.5,9.6,4.5,12.8
		c3,3.3,7.3,4.9,12.8,4.9c5.5,0,9.7-1.6,12.8-4.9c3-3.3,4.5-7.5,4.5-12.8c0-5.3-1.5-9.6-4.5-12.8c-3-3.3-7.3-4.9-12.8-4.9
		c-5.5,0-9.7,1.6-12.8,4.9C32.9,168.8,31.3,173.1,31.3,178.4z"/>
	<path d="M100.3,143.3H121v9.5h0.3c0.7-1.3,1.6-2.7,2.9-4c1.2-1.3,2.7-2.5,4.5-3.6c1.7-1.1,3.7-1.9,5.9-2.6c2.2-0.7,4.6-1,7.2-1
		c5.5,0,9.9,0.8,13.3,2.5c3.4,1.7,6,4,7.9,7c1.9,3,3.1,6.5,3.8,10.5c0.7,4,1,8.4,1,13.1v38.6h-21.6v-34.3c0-2-0.1-4.1-0.2-6.3
		c-0.1-2.2-0.6-4.2-1.3-6c-0.7-1.8-1.8-3.3-3.3-4.5c-1.5-1.2-3.6-1.7-6.4-1.7c-2.8,0-5,0.5-6.8,1.5c-1.7,1-3.1,2.4-4,4
		c-0.9,1.7-1.5,3.6-1.8,5.7c-0.3,2.1-0.4,4.3-0.4,6.6v34.9h-21.6V143.3z"/>
	<path d="M230.7,160.6h-19V184c0,1.9,0.1,3.7,0.3,5.3c0.2,1.6,0.6,3,1.3,4.1c0.7,1.2,1.7,2,3.1,2.7c1.4,0.6,3.2,0.9,5.6,0.9
		c1.2,0,2.7-0.1,4.5-0.4c1.9-0.2,3.3-0.8,4.3-1.7v18c-2.4,0.9-4.9,1.4-7.5,1.7c-2.6,0.3-5.1,0.4-7.6,0.4c-3.7,0-7-0.4-10.1-1.2
		c-3.1-0.8-5.8-2-8.1-3.7c-2.3-1.7-4.1-3.9-5.4-6.6c-1.3-2.7-1.9-6-1.9-9.8v-33.3h-13.8v-17.3h13.8v-20.8h21.6v20.8h19V160.6z"/>
	<path d="M241.7,143.3h20.8v9.5h0.3c0.7-1.3,1.6-2.7,2.9-4c1.2-1.3,2.7-2.5,4.5-3.6c1.7-1.1,3.7-1.9,5.9-2.6c2.2-0.7,4.6-1,7.2-1
		c4.9,0,9.3,1,13,3c3.8,2,6.7,5.2,8.6,9.5c2.5-4.5,5.5-7.7,9.1-9.7c3.6-1.9,7.9-2.9,13.1-2.9c4.7,0,8.7,0.8,11.9,2.4
		c3.2,1.6,5.8,3.7,7.6,6.5c1.9,2.7,3.2,6,4,9.7c0.8,3.7,1.2,7.7,1.2,11.9v41.4h-21.6v-40.8c0-3.3-0.7-6.1-2.1-8.4
		c-1.4-2.4-3.9-3.5-7.4-3.5c-2.5,0-4.6,0.4-6.3,1.2c-1.7,0.8-3,1.9-4,3.4c-1,1.4-1.7,3.1-2.2,5c-0.4,1.9-0.6,3.9-0.6,6.1v37.1H286
		v-37.1c0-1.2-0.1-2.8-0.1-4.6c-0.1-1.8-0.4-3.6-1-5.2c-0.6-1.6-1.5-3-2.8-4.2c-1.3-1.2-3.2-1.7-5.7-1.7c-2.8,0-5,0.5-6.8,1.5
		c-1.7,1-3.1,2.4-4,4c-0.9,1.7-1.5,3.6-1.8,5.7c-0.3,2.1-0.4,4.3-0.4,6.6v34.9h-21.6V143.3z"/>
	<path d="M364.5,178.4c0-5.6,1-10.6,3-15.1c2-4.5,4.8-8.4,8.3-11.6c3.5-3.2,7.6-5.7,12.4-7.4c4.8-1.7,9.8-2.6,15.2-2.6
		c5.4,0,10.5,0.9,15.2,2.6c4.8,1.7,8.9,4.2,12.4,7.4c3.5,3.2,6.3,7.1,8.3,11.6c2,4.5,3,9.6,3,15.1c0,5.6-1,10.6-3,15.1
		c-2,4.5-4.8,8.4-8.3,11.6c-3.5,3.2-7.6,5.7-12.4,7.4c-4.8,1.7-9.8,2.6-15.2,2.6c-5.4,0-10.5-0.9-15.2-2.6
		c-4.8-1.7-8.9-4.2-12.4-7.4c-3.5-3.2-6.3-7.1-8.3-11.6C365.5,189,364.5,184,364.5,178.4z M386.2,178.4c0,5.3,1.5,9.6,4.5,12.8
		c3,3.3,7.3,4.9,12.8,4.9c5.5,0,9.7-1.6,12.8-4.9c3-3.3,4.5-7.5,4.5-12.8c0-5.3-1.5-9.6-4.5-12.8c-3-3.3-7.3-4.9-12.8-4.9
		c-5.5,0-9.7,1.6-12.8,4.9C387.7,168.8,386.2,173.1,386.2,178.4z"/>
	<path class="st0" d="M511.7,145.8c4.4,3.5,7.8,7.8,10.2,13.1c2.4,5.3,3.6,10.8,3.6,16.4c0,5.4-0.9,10.5-2.6,15.2
		c-1.7,4.8-4.2,8.9-7.4,12.4c-3.2,3.5-7.1,6.3-11.6,8.3c-4.5,2-9.6,3-15.1,3c-5.6,0-10.6-1-15.1-3c-4.5-2-8.4-4.8-11.6-8.3
		c-3.2-3.5-5.7-7.6-7.4-12.4c-1.7-4.8-2.6-9.8-2.6-15.2c0-5,0.9-9.5,2.6-13.6c1.7-4.1,4.2-7.5,7.4-10.4c3.2-2.8,7.1-5,11.6-6.6
		c4.5-1.5,9.6-2.3,15.1-2.3h6.8v50.2c4.1-0.9,7.4-2.7,9.9-5.6c2.5-2.9,3.7-6.4,3.7-10.7c0-3.6-0.8-6.6-2.4-9
		c-1.6-2.5-3.6-4.6-6.1-6.4L511.7,145.8z M480.9,164.1c-3.7-0.1-6.8,1.1-9.4,3.6c-2.6,2.5-3.9,5.7-3.9,9.7c0,2.4,0.4,4.5,1.2,6.3
		c0.8,1.8,1.8,3.4,3,4.7c1.2,1.3,2.6,2.3,4.2,3c1.6,0.7,3.2,1.1,5,1.2V164.1z"/>
	<path d="M585.6,160.6h-19V184c0,1.9,0.1,3.7,0.3,5.3c0.2,1.6,0.6,3,1.3,4.1c0.7,1.2,1.7,2,3.1,2.7c1.4,0.6,3.2,0.9,5.6,0.9
		c1.2,0,2.7-0.1,4.5-0.4c1.9-0.2,3.3-0.8,4.3-1.7v18c-2.4,0.9-4.9,1.4-7.5,1.7c-2.6,0.3-5.1,0.4-7.6,0.4c-3.7,0-7-0.4-10.1-1.2
		c-3.1-0.8-5.8-2-8.1-3.7c-2.3-1.7-4.1-3.9-5.4-6.6c-1.3-2.7-1.9-6-1.9-9.8v-33.3h-13.8v-17.3h13.8v-20.8h21.6v20.8h19V160.6z"/>
</g>
</svg>
