<?xml version="1.0" encoding="utf-8"?>
<!-- Generator: Adobe Illustrator 23.0.4, SVG Export Plug-In . SVG Version: 6.00 Build 0)  -->
<svg version="1.1" id="Laag_1" xmlns="http://www.w3.org/2000/svg" xmlns:xlink="http://www.w3.org/1999/xlink" x="0px" y="0px"
	 viewBox="0 0 255.1 124" style="enable-background:new 0 0 255.1 124;" xml:space="preserve">
<style type="text/css">
	.st0{fill:#E52421;}
</style>
<path class="st0" d="M3,77.8c0-5.6,1-10.6,3-15.1c2-4.5,4.8-8.4,8.3-11.6c3.5-3.2,7.6-5.7,12.4-7.4c4.8-1.7,9.8-2.6,15.2-2.6
	c5.4,0,10.5,0.9,15.2,2.6c4.8,1.7,8.9,4.2,12.4,7.4c3.5,3.2,6.3,7.1,8.3,11.6c2,4.5,3,9.6,3,15.1c0,5.6-1,10.6-3,15.1
	c-2,4.5-4.8,8.4-8.3,11.6c-3.5,3.2-7.6,5.7-12.4,7.4c-4.8,1.7-9.8,2.6-15.2,2.6c-5.4,0-10.5-0.9-15.2-2.6c-4.8-1.7-8.9-4.2-12.4-7.4
	C10.8,101.4,8,97.5,6,93C4,88.5,3,83.4,3,77.8z M24.6,77.8c0,5.3,1.5,9.6,4.5,12.8c3,3.3,7.3,4.9,12.8,4.9c5.5,0,9.7-1.6,12.8-4.9
	c3-3.3,4.5-7.5,4.5-12.8c0-5.3-1.5-9.6-4.5-12.8c-3-3.3-7.3-4.9-12.8-4.9c-5.5,0-9.7,1.6-12.8,4.9C26.1,68.3,24.6,72.6,24.6,77.8z"
	/>
<path d="M95.5,3.9h21.6v46.4h0.3c2.5-3.4,5.7-5.7,9.6-7.1c3.9-1.4,8.1-2.1,12.6-2.1c5,0,9.5,1,13.4,3.1c3.9,2.1,7.3,4.8,10,8.3
	c2.7,3.5,4.9,7.4,6.3,11.9c1.5,4.5,2.2,9.2,2.2,14.1c0,5.3-0.8,10.1-2.5,14.6c-1.6,4.4-4,8.2-7,11.5c-3,3.2-6.7,5.7-10.9,7.5
	c-4.2,1.8-8.9,2.7-14.1,2.7c-2.5,0-4.9-0.3-7.1-1c-2.2-0.7-4.3-1.5-6.1-2.6c-1.9-1.1-3.5-2.2-4.9-3.5c-1.4-1.3-2.5-2.6-3.4-3.8h-0.3
	v9.2H95.5V3.9z M115.4,77.8c0,5.3,1.5,9.6,4.5,12.8c3,3.3,7.3,4.9,12.8,4.9c5.5,0,9.7-1.6,12.8-4.9c3-3.3,4.5-7.5,4.5-12.8
	c0-5.3-1.5-9.6-4.5-12.8c-3-3.3-7.3-4.9-12.8-4.9c-5.5,0-9.7,1.6-12.8,4.9C116.9,68.3,115.4,72.6,115.4,77.8z"/>
<path class="st0" d="M240.8,64.1v0.3c3.7,2.4,6.4,5.6,8.1,9.6c1.6,4,2.5,8.2,2.5,12.6c0,3.3-0.5,6.4-1.4,9.4c-0.9,3-2.3,5.7-4.1,8
	c-1.8,2.3-4.1,4.1-6.8,5.5c-2.7,1.3-5.8,2-9.4,2c-4,0-7.4-0.7-10.2-2.2c-2.8-1.5-5.1-3.5-6.9-6.1c-1.8-2.5-3.2-5.5-4.3-8.7
	c-1-3.3-1.8-6.7-2.2-10.2s-0.8-7-0.9-10.5c-0.1-3.5-0.1-6.8-0.1-9.7c-3.8,0-6.9,1.4-9.2,4.1c-2.3,2.7-3.4,6-3.4,9.7
	c0,3.6,0.7,6.8,2.2,9.7c1.5,2.9,3.5,5.6,6.1,7.9L189,107c-3.7-4-6.6-8.7-8.4-14.1c-1.9-5.4-2.8-11-2.8-16.7c0-6.3,0.8-11.6,2.4-15.6
	c1.6-4.1,3.9-7.4,7-9.8c3.1-2.5,6.8-4.2,11.3-5.1c4.5-1,9.6-1.4,15.5-1.4h35.6v19.9H240.8z M218.9,69.4c0,1.6,0.1,3.7,0.2,6.1
	c0.1,2.5,0.6,4.8,1.2,7.1c0.7,2.3,1.7,4.2,3,5.8c1.3,1.6,3.2,2.4,5.6,2.4c2.6,0,4.5-1.1,5.8-3.3c1.3-2.2,1.9-4.5,1.9-6.9
	c0-2.1-0.3-4.2-0.9-6.1c-0.6-2-1.4-3.7-2.5-5.3c-1.1-1.5-2.4-2.8-4-3.7c-1.6-0.9-3.6-1.4-5.8-1.4h-4.6V69.4z"/>
</svg>
