<?xml version="1.0" encoding="utf-8"?>
<!-- Generator: Adobe Illustrator 23.0.4, SVG Export Plug-In . SVG Version: 6.00 Build 0)  -->
<svg version="1.1" id="Laag_1" xmlns="http://www.w3.org/2000/svg" xmlns:xlink="http://www.w3.org/1999/xlink" x="0px" y="0px"
	 viewBox="0 0 149.55 150.1" style="enable-background:new 0 0 149.55 150.1;" xml:space="preserve">
<style type="text/css">
	.st0{fill:#E52421;}
	.st1{fill:#CDCCCC;}
	.st2{fill:#CDCCCC;stroke:#FFFFFF;stroke-width:2;}
	.st3{fill:none;stroke:#FFFFFF;stroke-width:0.5;}
	.st4{fill:none;stroke:#CDCCCC;}
</style>
<path id="Union_13" class="st0" d="M127.86,100.64v-7.37h-23.98V81.28h23.99v-7.37c0-0.19,0.15-0.35,0.34-0.35
	c0.07,0,0.13,0.02,0.19,0.05l21,13.37c0.16,0.1,0.21,0.32,0.1,0.48c-0.03,0.04-0.06,0.08-0.1,0.1l-21,13.37
	c-0.05,0.04-0.12,0.05-0.18,0.06c-0.19,0-0.35-0.15-0.35-0.34C127.86,100.64,127.86,100.64,127.86,100.64z"/>
<path class="st1" d="M50.46,96.9h12.4c27.16,0,49.17,22.02,49.17,49.17l0,0l0,0c0,0.7-0.57,1.26-1.26,1.26H2.55
	c-0.7,0-1.26-0.57-1.26-1.26l0,0C1.29,118.91,23.31,96.9,50.46,96.9C50.46,96.9,50.46,96.9,50.46,96.9z"/>
<circle class="st2" cx="56.67" cy="78.86" r="26.27"/>
<path id="Union_12" class="st0" d="M50.92,50.36V37.99c-4.23-3.18-5.08-9.18-1.9-13.4c3.18-4.23,9.18-5.08,13.4-1.9
	s5.08,9.18,1.9,13.4c-0.54,0.72-1.18,1.36-1.9,1.9v12.37L50.92,50.36z"/>
<line id="Line_108" class="st3" x1="51.87" y1="40.87" x2="61.46" y2="42.78"/>
<line id="Line_109" class="st3" x1="51.87" y1="46.62" x2="61.46" y2="48.53"/>
<line id="Line_110" class="st4" x1="45.62" y1="26.52" x2="38.26" y2="19.16"/>
<line id="Line_111" class="st4" x1="52.99" y1="19.16" x2="45.62" y2="4.44"/>
<line id="Line_113" class="st4" x1="60.35" y1="19.16" x2="67.71" y2="4.44"/>
<line id="Line_112" class="st4" x1="67.71" y1="26.52" x2="75.07" y2="19.16"/>
</svg>
